<mxfile host="Electron" agent="Mozilla/5.0 (Windows NT 10.0; Win64; x64) AppleWebKit/537.36 (KHTML, like Gecko) draw.io/26.0.4 Chrome/128.0.6613.186 Electron/32.2.5 Safari/537.36" version="26.0.4">
  <diagram name="第 1 页" id="Zpbtb6DetR6FBaemdAR8">
    <mxGraphModel dx="658" dy="453" grid="1" gridSize="10" guides="1" tooltips="1" connect="1" arrows="1" fold="1" page="1" pageScale="1" pageWidth="827" pageHeight="1169" math="0" shadow="0">
      <root>
        <mxCell id="0" />
        <mxCell id="1" parent="0" />
        <mxCell id="mcDAlcP-e7JSerg0xwQu-1" value="" style="ellipse;whiteSpace=wrap;html=1;aspect=fixed;sketch=1;curveFitting=1;jiggle=2;shadow=0;fillColor=#f5f5f5;fontColor=#333333;strokeColor=#666666;" parent="1" vertex="1">
          <mxGeometry x="320" y="120" width="40" height="40" as="geometry" />
        </mxCell>
        <mxCell id="mcDAlcP-e7JSerg0xwQu-2" value="" style="ellipse;whiteSpace=wrap;html=1;aspect=fixed;sketch=1;curveFitting=1;jiggle=2;shadow=0;fillColor=#f5f5f5;fontColor=#333333;strokeColor=#666666;" parent="1" vertex="1">
          <mxGeometry x="360" y="200" width="40" height="40" as="geometry" />
        </mxCell>
        <mxCell id="mcDAlcP-e7JSerg0xwQu-3" value="" style="ellipse;whiteSpace=wrap;html=1;aspect=fixed;sketch=1;curveFitting=1;jiggle=2;shadow=0;fillColor=#f5f5f5;fontColor=#333333;strokeColor=#666666;" parent="1" vertex="1">
          <mxGeometry x="280" y="200" width="40" height="40" as="geometry" />
        </mxCell>
        <mxCell id="mcDAlcP-e7JSerg0xwQu-4" value="" style="ellipse;whiteSpace=wrap;html=1;aspect=fixed;sketch=1;curveFitting=1;jiggle=2;shadow=0;fillColor=#f5f5f5;fontColor=#333333;strokeColor=#666666;" parent="1" vertex="1">
          <mxGeometry x="240" y="280" width="40" height="40" as="geometry" />
        </mxCell>
        <mxCell id="mcDAlcP-e7JSerg0xwQu-5" value="" style="ellipse;whiteSpace=wrap;html=1;aspect=fixed;sketch=1;curveFitting=1;jiggle=2;shadow=0;fillColor=#f5f5f5;fontColor=#333333;strokeColor=#666666;" parent="1" vertex="1">
          <mxGeometry x="200" y="360" width="40" height="40" as="geometry" />
        </mxCell>
        <mxCell id="mcDAlcP-e7JSerg0xwQu-6" value="" style="ellipse;whiteSpace=wrap;html=1;aspect=fixed;sketch=1;curveFitting=1;jiggle=2;shadow=0;fillColor=#f5f5f5;fontColor=#333333;strokeColor=#666666;" parent="1" vertex="1">
          <mxGeometry x="400" y="280" width="40" height="40" as="geometry" />
        </mxCell>
        <mxCell id="mcDAlcP-e7JSerg0xwQu-7" value="" style="ellipse;whiteSpace=wrap;html=1;aspect=fixed;sketch=1;curveFitting=1;jiggle=2;shadow=0;fillColor=#f5f5f5;fontColor=#333333;strokeColor=#666666;" parent="1" vertex="1">
          <mxGeometry x="360" y="360" width="40" height="40" as="geometry" />
        </mxCell>
        <mxCell id="mcDAlcP-e7JSerg0xwQu-8" value="" style="ellipse;whiteSpace=wrap;html=1;aspect=fixed;sketch=1;curveFitting=1;jiggle=2;shadow=0;fillColor=#f5f5f5;fontColor=#333333;strokeColor=#666666;" parent="1" vertex="1">
          <mxGeometry x="440" y="360" width="40" height="40" as="geometry" />
        </mxCell>
        <mxCell id="mcDAlcP-e7JSerg0xwQu-10" value="1" style="endArrow=none;html=1;rounded=0;entryX=0;entryY=1;entryDx=0;entryDy=0;exitX=0.637;exitY=0.107;exitDx=0;exitDy=0;exitPerimeter=0;sketch=1;curveFitting=1;jiggle=2;fillColor=#f5f5f5;strokeColor=#666666;" parent="1" source="mcDAlcP-e7JSerg0xwQu-3" target="mcDAlcP-e7JSerg0xwQu-1" edge="1">
          <mxGeometry width="50" height="50" relative="1" as="geometry">
            <mxPoint x="390" y="250" as="sourcePoint" />
            <mxPoint x="440" y="200" as="targetPoint" />
          </mxGeometry>
        </mxCell>
        <mxCell id="mcDAlcP-e7JSerg0xwQu-11" value="7" style="endArrow=none;html=1;rounded=0;entryX=1;entryY=1;entryDx=0;entryDy=0;exitX=0.275;exitY=0.021;exitDx=0;exitDy=0;exitPerimeter=0;sketch=1;curveFitting=1;jiggle=2;fillColor=#f5f5f5;strokeColor=#666666;" parent="1" source="mcDAlcP-e7JSerg0xwQu-2" target="mcDAlcP-e7JSerg0xwQu-1" edge="1">
          <mxGeometry width="50" height="50" relative="1" as="geometry">
            <mxPoint x="315" y="214" as="sourcePoint" />
            <mxPoint x="336" y="164" as="targetPoint" />
          </mxGeometry>
        </mxCell>
        <mxCell id="mcDAlcP-e7JSerg0xwQu-12" value="2" style="endArrow=none;html=1;rounded=0;entryX=0.258;entryY=0.969;entryDx=0;entryDy=0;exitX=0.75;exitY=0;exitDx=0;exitDy=0;exitPerimeter=0;sketch=1;curveFitting=1;jiggle=2;entryPerimeter=0;fillColor=#f5f5f5;strokeColor=#666666;" parent="1" source="mcDAlcP-e7JSerg0xwQu-4" target="mcDAlcP-e7JSerg0xwQu-3" edge="1">
          <mxGeometry width="50" height="50" relative="1" as="geometry">
            <mxPoint x="325" y="224" as="sourcePoint" />
            <mxPoint x="346" y="174" as="targetPoint" />
          </mxGeometry>
        </mxCell>
        <mxCell id="mcDAlcP-e7JSerg0xwQu-13" value="12" style="endArrow=none;html=1;rounded=0;entryX=0.275;entryY=0.934;entryDx=0;entryDy=0;exitX=0.672;exitY=0.064;exitDx=0;exitDy=0;exitPerimeter=0;sketch=1;curveFitting=1;jiggle=2;entryPerimeter=0;fillColor=#f5f5f5;strokeColor=#666666;" parent="1" source="mcDAlcP-e7JSerg0xwQu-5" target="mcDAlcP-e7JSerg0xwQu-4" edge="1">
          <mxGeometry width="50" height="50" relative="1" as="geometry">
            <mxPoint x="335" y="234" as="sourcePoint" />
            <mxPoint x="356" y="184" as="targetPoint" />
          </mxGeometry>
        </mxCell>
        <mxCell id="mcDAlcP-e7JSerg0xwQu-14" value="9" style="endArrow=none;html=1;rounded=0;entryX=1;entryY=1;entryDx=0;entryDy=0;exitX=0.25;exitY=0;exitDx=0;exitDy=0;exitPerimeter=0;sketch=1;curveFitting=1;jiggle=2;fillColor=#f5f5f5;strokeColor=#666666;" parent="1" source="mcDAlcP-e7JSerg0xwQu-6" target="mcDAlcP-e7JSerg0xwQu-2" edge="1">
          <mxGeometry width="50" height="50" relative="1" as="geometry">
            <mxPoint x="345" y="244" as="sourcePoint" />
            <mxPoint x="366" y="194" as="targetPoint" />
          </mxGeometry>
        </mxCell>
        <mxCell id="mcDAlcP-e7JSerg0xwQu-15" value="30" style="endArrow=none;html=1;rounded=0;entryX=0;entryY=1;entryDx=0;entryDy=0;exitX=0.663;exitY=0.003;exitDx=0;exitDy=0;exitPerimeter=0;sketch=1;curveFitting=1;jiggle=2;fillColor=#f5f5f5;strokeColor=#666666;" parent="1" source="mcDAlcP-e7JSerg0xwQu-7" target="mcDAlcP-e7JSerg0xwQu-6" edge="1">
          <mxGeometry width="50" height="50" relative="1" as="geometry">
            <mxPoint x="355" y="254" as="sourcePoint" />
            <mxPoint x="376" y="204" as="targetPoint" />
          </mxGeometry>
        </mxCell>
        <mxCell id="mcDAlcP-e7JSerg0xwQu-16" value="4" style="endArrow=none;html=1;rounded=0;entryX=1;entryY=1;entryDx=0;entryDy=0;sketch=1;curveFitting=1;jiggle=2;fillColor=#f5f5f5;strokeColor=#666666;" parent="1" source="mcDAlcP-e7JSerg0xwQu-8" target="mcDAlcP-e7JSerg0xwQu-6" edge="1">
          <mxGeometry width="50" height="50" relative="1" as="geometry">
            <mxPoint x="365" y="264" as="sourcePoint" />
            <mxPoint x="386" y="214" as="targetPoint" />
          </mxGeometry>
        </mxCell>
        <mxCell id="mcDAlcP-e7JSerg0xwQu-17" value="" style="ellipse;whiteSpace=wrap;html=1;aspect=fixed;sketch=1;curveFitting=1;jiggle=2;shadow=0;fillColor=#fff2cc;strokeColor=#d6b656;" parent="1" vertex="1">
          <mxGeometry x="640" y="120" width="40" height="40" as="geometry" />
        </mxCell>
        <mxCell id="mcDAlcP-e7JSerg0xwQu-18" value="7" style="ellipse;whiteSpace=wrap;html=1;aspect=fixed;sketch=1;curveFitting=1;jiggle=2;shadow=0;fillColor=#fff2cc;strokeColor=#d6b656;" parent="1" vertex="1">
          <mxGeometry x="680" y="200" width="40" height="40" as="geometry" />
        </mxCell>
        <mxCell id="mcDAlcP-e7JSerg0xwQu-19" value="1" style="ellipse;whiteSpace=wrap;html=1;aspect=fixed;sketch=1;curveFitting=1;jiggle=2;shadow=0;fillColor=#fff2cc;strokeColor=#d6b656;" parent="1" vertex="1">
          <mxGeometry x="600" y="200" width="40" height="40" as="geometry" />
        </mxCell>
        <mxCell id="mcDAlcP-e7JSerg0xwQu-20" value="2" style="ellipse;whiteSpace=wrap;html=1;aspect=fixed;sketch=1;curveFitting=1;jiggle=2;shadow=0;fillColor=#fff2cc;strokeColor=#d6b656;" parent="1" vertex="1">
          <mxGeometry x="560" y="280" width="40" height="40" as="geometry" />
        </mxCell>
        <mxCell id="mcDAlcP-e7JSerg0xwQu-21" value="12" style="ellipse;whiteSpace=wrap;html=1;aspect=fixed;sketch=1;curveFitting=1;jiggle=2;shadow=0;fillColor=#fff2cc;strokeColor=#d6b656;" parent="1" vertex="1">
          <mxGeometry x="520" y="360" width="40" height="40" as="geometry" />
        </mxCell>
        <mxCell id="mcDAlcP-e7JSerg0xwQu-22" value="9" style="ellipse;whiteSpace=wrap;html=1;aspect=fixed;sketch=1;curveFitting=1;jiggle=2;shadow=0;fillColor=#fff2cc;strokeColor=#d6b656;" parent="1" vertex="1">
          <mxGeometry x="720" y="280" width="40" height="40" as="geometry" />
        </mxCell>
        <mxCell id="mcDAlcP-e7JSerg0xwQu-23" value="30" style="ellipse;whiteSpace=wrap;html=1;aspect=fixed;sketch=1;curveFitting=1;jiggle=2;shadow=0;fillColor=#fff2cc;strokeColor=#d6b656;" parent="1" vertex="1">
          <mxGeometry x="680" y="360" width="40" height="40" as="geometry" />
        </mxCell>
        <mxCell id="mcDAlcP-e7JSerg0xwQu-24" value="4" style="ellipse;whiteSpace=wrap;html=1;aspect=fixed;sketch=1;curveFitting=1;jiggle=2;shadow=0;fillColor=#fff2cc;strokeColor=#d6b656;" parent="1" vertex="1">
          <mxGeometry x="760" y="360" width="40" height="40" as="geometry" />
        </mxCell>
        <mxCell id="mcDAlcP-e7JSerg0xwQu-25" value="" style="endArrow=none;html=1;rounded=0;entryX=0;entryY=1;entryDx=0;entryDy=0;exitX=0.637;exitY=0.107;exitDx=0;exitDy=0;exitPerimeter=0;sketch=1;curveFitting=1;jiggle=2;fillColor=#fff2cc;strokeColor=#d6b656;" parent="1" source="mcDAlcP-e7JSerg0xwQu-19" target="mcDAlcP-e7JSerg0xwQu-17" edge="1">
          <mxGeometry width="50" height="50" relative="1" as="geometry">
            <mxPoint x="710" y="250" as="sourcePoint" />
            <mxPoint x="760" y="200" as="targetPoint" />
          </mxGeometry>
        </mxCell>
        <mxCell id="mcDAlcP-e7JSerg0xwQu-26" value="" style="endArrow=none;html=1;rounded=0;entryX=1;entryY=1;entryDx=0;entryDy=0;exitX=0.275;exitY=0.021;exitDx=0;exitDy=0;exitPerimeter=0;sketch=1;curveFitting=1;jiggle=2;fillColor=#fff2cc;strokeColor=#d6b656;" parent="1" source="mcDAlcP-e7JSerg0xwQu-18" target="mcDAlcP-e7JSerg0xwQu-17" edge="1">
          <mxGeometry width="50" height="50" relative="1" as="geometry">
            <mxPoint x="635" y="214" as="sourcePoint" />
            <mxPoint x="656" y="164" as="targetPoint" />
          </mxGeometry>
        </mxCell>
        <mxCell id="mcDAlcP-e7JSerg0xwQu-27" value="" style="endArrow=none;html=1;rounded=0;entryX=0.258;entryY=0.969;entryDx=0;entryDy=0;exitX=0.75;exitY=0;exitDx=0;exitDy=0;exitPerimeter=0;sketch=1;curveFitting=1;jiggle=2;entryPerimeter=0;fillColor=#fff2cc;strokeColor=#d6b656;" parent="1" source="mcDAlcP-e7JSerg0xwQu-20" target="mcDAlcP-e7JSerg0xwQu-19" edge="1">
          <mxGeometry width="50" height="50" relative="1" as="geometry">
            <mxPoint x="645" y="224" as="sourcePoint" />
            <mxPoint x="666" y="174" as="targetPoint" />
          </mxGeometry>
        </mxCell>
        <mxCell id="mcDAlcP-e7JSerg0xwQu-28" value="" style="endArrow=none;html=1;rounded=0;entryX=0.275;entryY=0.934;entryDx=0;entryDy=0;exitX=0.672;exitY=0.064;exitDx=0;exitDy=0;exitPerimeter=0;sketch=1;curveFitting=1;jiggle=2;entryPerimeter=0;fillColor=#fff2cc;strokeColor=#d6b656;" parent="1" source="mcDAlcP-e7JSerg0xwQu-21" target="mcDAlcP-e7JSerg0xwQu-20" edge="1">
          <mxGeometry x="0.0181" y="-1" width="50" height="50" relative="1" as="geometry">
            <mxPoint x="655" y="234" as="sourcePoint" />
            <mxPoint x="676" y="184" as="targetPoint" />
            <mxPoint as="offset" />
          </mxGeometry>
        </mxCell>
        <mxCell id="mcDAlcP-e7JSerg0xwQu-29" value="" style="endArrow=none;html=1;rounded=0;entryX=1;entryY=1;entryDx=0;entryDy=0;exitX=0.25;exitY=0;exitDx=0;exitDy=0;exitPerimeter=0;sketch=1;curveFitting=1;jiggle=2;fillColor=#fff2cc;strokeColor=#d6b656;" parent="1" source="mcDAlcP-e7JSerg0xwQu-22" target="mcDAlcP-e7JSerg0xwQu-18" edge="1">
          <mxGeometry width="50" height="50" relative="1" as="geometry">
            <mxPoint x="665" y="244" as="sourcePoint" />
            <mxPoint x="686" y="194" as="targetPoint" />
          </mxGeometry>
        </mxCell>
        <mxCell id="mcDAlcP-e7JSerg0xwQu-30" value="" style="endArrow=none;html=1;rounded=0;entryX=0;entryY=1;entryDx=0;entryDy=0;exitX=0.663;exitY=0.003;exitDx=0;exitDy=0;exitPerimeter=0;sketch=1;curveFitting=1;jiggle=2;fillColor=#fff2cc;strokeColor=#d6b656;" parent="1" source="mcDAlcP-e7JSerg0xwQu-23" target="mcDAlcP-e7JSerg0xwQu-22" edge="1">
          <mxGeometry width="50" height="50" relative="1" as="geometry">
            <mxPoint x="675" y="254" as="sourcePoint" />
            <mxPoint x="696" y="204" as="targetPoint" />
          </mxGeometry>
        </mxCell>
        <mxCell id="mcDAlcP-e7JSerg0xwQu-31" value="" style="endArrow=none;html=1;rounded=0;entryX=1;entryY=1;entryDx=0;entryDy=0;sketch=1;curveFitting=1;jiggle=2;fillColor=#fff2cc;strokeColor=#d6b656;" parent="1" source="mcDAlcP-e7JSerg0xwQu-24" target="mcDAlcP-e7JSerg0xwQu-22" edge="1">
          <mxGeometry width="50" height="50" relative="1" as="geometry">
            <mxPoint x="685" y="264" as="sourcePoint" />
            <mxPoint x="706" y="214" as="targetPoint" />
            <Array as="points">
              <mxPoint x="760" y="330" />
            </Array>
          </mxGeometry>
        </mxCell>
        <mxCell id="mcDAlcP-e7JSerg0xwQu-33" value="" style="shape=flexArrow;endArrow=classic;html=1;rounded=0;fillColor=#f8cecc;strokeColor=#b85450;sketch=1;curveFitting=1;jiggle=2;" parent="1" edge="1">
          <mxGeometry width="50" height="50" relative="1" as="geometry">
            <mxPoint x="470" y="260" as="sourcePoint" />
            <mxPoint x="530" y="260" as="targetPoint" />
          </mxGeometry>
        </mxCell>
        <mxCell id="mcDAlcP-e7JSerg0xwQu-34" value="u" style="ellipse;whiteSpace=wrap;html=1;aspect=fixed;sketch=1;curveFitting=1;jiggle=2;fillColor=#fff2cc;strokeColor=#d6b656;" parent="1" vertex="1">
          <mxGeometry x="150" y="730" width="50" height="50" as="geometry" />
        </mxCell>
        <mxCell id="mcDAlcP-e7JSerg0xwQu-35" value="top[u]" style="ellipse;whiteSpace=wrap;html=1;aspect=fixed;sketch=1;curveFitting=1;jiggle=2;fillColor=#fff2cc;strokeColor=#d6b656;" parent="1" vertex="1">
          <mxGeometry x="190" y="650" width="50" height="50" as="geometry" />
        </mxCell>
        <mxCell id="mcDAlcP-e7JSerg0xwQu-36" value="" style="endArrow=none;dashed=1;html=1;rounded=0;exitX=0.75;exitY=0;exitDx=0;exitDy=0;exitPerimeter=0;entryX=0.281;entryY=1.029;entryDx=0;entryDy=0;entryPerimeter=0;sketch=1;curveFitting=1;jiggle=2;fillColor=#fff2cc;strokeColor=#d6b656;" parent="1" source="mcDAlcP-e7JSerg0xwQu-34" target="mcDAlcP-e7JSerg0xwQu-35" edge="1">
          <mxGeometry width="50" height="50" relative="1" as="geometry">
            <mxPoint x="450" y="560" as="sourcePoint" />
            <mxPoint x="500" y="510" as="targetPoint" />
          </mxGeometry>
        </mxCell>
        <mxCell id="mcDAlcP-e7JSerg0xwQu-38" value="fa[top[u]" style="ellipse;whiteSpace=wrap;html=1;aspect=fixed;sketch=1;curveFitting=1;jiggle=2;fillColor=#d5e8d4;strokeColor=#82b366;" parent="1" vertex="1">
          <mxGeometry x="270" y="570" width="50" height="50" as="geometry" />
        </mxCell>
        <mxCell id="mcDAlcP-e7JSerg0xwQu-39" value="" style="endArrow=none;dashed=1;html=1;dashPattern=1 3;strokeWidth=2;rounded=0;exitX=1;exitY=0;exitDx=0;exitDy=0;sketch=1;curveFitting=1;jiggle=2;" parent="1" source="mcDAlcP-e7JSerg0xwQu-35" target="mcDAlcP-e7JSerg0xwQu-38" edge="1">
          <mxGeometry width="50" height="50" relative="1" as="geometry">
            <mxPoint x="450" y="560" as="sourcePoint" />
            <mxPoint x="500" y="510" as="targetPoint" />
          </mxGeometry>
        </mxCell>
        <mxCell id="mcDAlcP-e7JSerg0xwQu-41" value="" style="ellipse;whiteSpace=wrap;html=1;aspect=fixed;sketch=1;curveFitting=1;jiggle=2;fillColor=#d5e8d4;strokeColor=#82b366;" parent="1" vertex="1">
          <mxGeometry x="320" y="640" width="50" height="50" as="geometry" />
        </mxCell>
        <mxCell id="mcDAlcP-e7JSerg0xwQu-42" value="" style="ellipse;whiteSpace=wrap;html=1;aspect=fixed;sketch=1;curveFitting=1;jiggle=2;fillColor=#d5e8d4;strokeColor=#82b366;" parent="1" vertex="1">
          <mxGeometry x="345" y="720" width="50" height="50" as="geometry" />
        </mxCell>
        <mxCell id="mcDAlcP-e7JSerg0xwQu-43" value="" style="ellipse;whiteSpace=wrap;html=1;aspect=fixed;sketch=1;curveFitting=1;jiggle=2;fillColor=#d5e8d4;strokeColor=#82b366;" parent="1" vertex="1">
          <mxGeometry x="295" y="790" width="50" height="50" as="geometry" />
        </mxCell>
        <mxCell id="mcDAlcP-e7JSerg0xwQu-44" value="" style="ellipse;whiteSpace=wrap;html=1;aspect=fixed;sketch=1;curveFitting=1;jiggle=2;fillColor=#e1d5e7;strokeColor=#9673a6;" parent="1" vertex="1">
          <mxGeometry x="390" y="790" width="50" height="50" as="geometry" />
        </mxCell>
        <mxCell id="mcDAlcP-e7JSerg0xwQu-45" value="" style="endArrow=none;dashed=1;html=1;dashPattern=1 3;strokeWidth=2;rounded=0;exitX=1;exitY=1;exitDx=0;exitDy=0;sketch=1;curveFitting=1;jiggle=2;fillColor=#d5e8d4;strokeColor=#82b366;" parent="1" source="mcDAlcP-e7JSerg0xwQu-38" target="mcDAlcP-e7JSerg0xwQu-41" edge="1">
          <mxGeometry width="50" height="50" relative="1" as="geometry">
            <mxPoint x="450" y="730" as="sourcePoint" />
            <mxPoint x="500" y="680" as="targetPoint" />
          </mxGeometry>
        </mxCell>
        <mxCell id="mcDAlcP-e7JSerg0xwQu-46" value="" style="endArrow=none;dashed=1;html=1;dashPattern=1 3;strokeWidth=2;rounded=0;exitX=0.617;exitY=1.048;exitDx=0;exitDy=0;sketch=1;curveFitting=1;jiggle=2;exitPerimeter=0;entryX=0.283;entryY=0.015;entryDx=0;entryDy=0;entryPerimeter=0;fillColor=#d5e8d4;strokeColor=#82b366;" parent="1" source="mcDAlcP-e7JSerg0xwQu-41" target="mcDAlcP-e7JSerg0xwQu-42" edge="1">
          <mxGeometry width="50" height="50" relative="1" as="geometry">
            <mxPoint x="323" y="623" as="sourcePoint" />
            <mxPoint x="342" y="654" as="targetPoint" />
          </mxGeometry>
        </mxCell>
        <mxCell id="mcDAlcP-e7JSerg0xwQu-47" value="" style="endArrow=none;dashed=1;html=1;dashPattern=1 3;strokeWidth=2;rounded=0;exitX=0.775;exitY=0.023;exitDx=0;exitDy=0;sketch=1;curveFitting=1;jiggle=2;exitPerimeter=0;entryX=0;entryY=1;entryDx=0;entryDy=0;fillColor=#d5e8d4;strokeColor=#82b366;" parent="1" source="mcDAlcP-e7JSerg0xwQu-43" target="mcDAlcP-e7JSerg0xwQu-42" edge="1">
          <mxGeometry width="50" height="50" relative="1" as="geometry">
            <mxPoint x="333" y="633" as="sourcePoint" />
            <mxPoint x="352" y="664" as="targetPoint" />
          </mxGeometry>
        </mxCell>
        <mxCell id="mcDAlcP-e7JSerg0xwQu-48" value="" style="endArrow=none;dashed=1;html=1;dashPattern=1 3;strokeWidth=2;rounded=0;exitX=1;exitY=1;exitDx=0;exitDy=0;sketch=1;curveFitting=1;jiggle=2;entryX=0;entryY=0;entryDx=0;entryDy=0;" parent="1" source="mcDAlcP-e7JSerg0xwQu-42" target="mcDAlcP-e7JSerg0xwQu-44" edge="1">
          <mxGeometry width="50" height="50" relative="1" as="geometry">
            <mxPoint x="343" y="643" as="sourcePoint" />
            <mxPoint x="362" y="674" as="targetPoint" />
          </mxGeometry>
        </mxCell>
        <mxCell id="mcDAlcP-e7JSerg0xwQu-49" value="fa[fa[top[u]]]" style="ellipse;whiteSpace=wrap;html=1;aspect=fixed;sketch=1;curveFitting=1;jiggle=2;fillColor=#f8cecc;strokeColor=#b85450;" parent="1" vertex="1">
          <mxGeometry x="400" y="490" width="70" height="70" as="geometry" />
        </mxCell>
        <mxCell id="mcDAlcP-e7JSerg0xwQu-50" value="" style="endArrow=none;dashed=1;html=1;dashPattern=1 3;strokeWidth=2;rounded=0;exitX=0.942;exitY=0.257;exitDx=0;exitDy=0;sketch=1;curveFitting=1;jiggle=2;entryX=0;entryY=0.714;entryDx=0;entryDy=0;entryPerimeter=0;exitPerimeter=0;" parent="1" source="mcDAlcP-e7JSerg0xwQu-38" target="mcDAlcP-e7JSerg0xwQu-49" edge="1">
          <mxGeometry width="50" height="50" relative="1" as="geometry">
            <mxPoint x="243" y="667" as="sourcePoint" />
            <mxPoint x="287" y="623" as="targetPoint" />
          </mxGeometry>
        </mxCell>
        <mxCell id="mcDAlcP-e7JSerg0xwQu-51" value="" style="ellipse;whiteSpace=wrap;html=1;aspect=fixed;sketch=1;curveFitting=1;jiggle=2;fillColor=#f8cecc;strokeColor=#b85450;" parent="1" vertex="1">
          <mxGeometry x="500" y="570" width="50" height="50" as="geometry" />
        </mxCell>
        <mxCell id="mcDAlcP-e7JSerg0xwQu-52" value="" style="ellipse;whiteSpace=wrap;html=1;aspect=fixed;sketch=1;curveFitting=1;jiggle=2;fillColor=#f8cecc;strokeColor=#b85450;" parent="1" vertex="1">
          <mxGeometry x="550" y="640" width="50" height="50" as="geometry" />
        </mxCell>
        <mxCell id="mcDAlcP-e7JSerg0xwQu-53" value="" style="ellipse;whiteSpace=wrap;html=1;aspect=fixed;sketch=1;curveFitting=1;jiggle=2;fillColor=#f8cecc;strokeColor=#b85450;" parent="1" vertex="1">
          <mxGeometry x="590" y="710" width="50" height="50" as="geometry" />
        </mxCell>
        <mxCell id="mcDAlcP-e7JSerg0xwQu-54" value="" style="ellipse;whiteSpace=wrap;html=1;aspect=fixed;sketch=1;curveFitting=1;jiggle=2;fillColor=#f8cecc;strokeColor=#b85450;" parent="1" vertex="1">
          <mxGeometry x="635" y="790" width="50" height="50" as="geometry" />
        </mxCell>
        <mxCell id="mcDAlcP-e7JSerg0xwQu-56" value="" style="endArrow=none;dashed=1;html=1;dashPattern=1 3;strokeWidth=2;rounded=0;exitX=1;exitY=1;exitDx=0;exitDy=0;sketch=1;curveFitting=1;jiggle=2;fillColor=#f8cecc;strokeColor=#b85450;" parent="1" source="mcDAlcP-e7JSerg0xwQu-49" target="mcDAlcP-e7JSerg0xwQu-51" edge="1">
          <mxGeometry width="50" height="50" relative="1" as="geometry">
            <mxPoint x="361" y="702" as="sourcePoint" />
            <mxPoint x="369" y="731" as="targetPoint" />
          </mxGeometry>
        </mxCell>
        <mxCell id="mcDAlcP-e7JSerg0xwQu-57" value="" style="endArrow=none;dashed=1;html=1;dashPattern=1 3;strokeWidth=2;rounded=0;exitX=0.767;exitY=1.015;exitDx=0;exitDy=0;sketch=1;curveFitting=1;jiggle=2;fillColor=#f8cecc;strokeColor=#b85450;exitPerimeter=0;" parent="1" source="mcDAlcP-e7JSerg0xwQu-51" target="mcDAlcP-e7JSerg0xwQu-52" edge="1">
          <mxGeometry width="50" height="50" relative="1" as="geometry">
            <mxPoint x="470" y="560" as="sourcePoint" />
            <mxPoint x="514" y="591" as="targetPoint" />
          </mxGeometry>
        </mxCell>
        <mxCell id="mcDAlcP-e7JSerg0xwQu-58" value="" style="endArrow=none;dashed=1;html=1;dashPattern=1 3;strokeWidth=2;rounded=0;exitX=0.675;exitY=0.99;exitDx=0;exitDy=0;sketch=1;curveFitting=1;jiggle=2;fillColor=#f8cecc;strokeColor=#b85450;entryX=0;entryY=0;entryDx=0;entryDy=0;exitPerimeter=0;" parent="1" source="mcDAlcP-e7JSerg0xwQu-52" target="mcDAlcP-e7JSerg0xwQu-53" edge="1">
          <mxGeometry width="50" height="50" relative="1" as="geometry">
            <mxPoint x="480" y="570" as="sourcePoint" />
            <mxPoint x="524" y="601" as="targetPoint" />
          </mxGeometry>
        </mxCell>
        <mxCell id="mcDAlcP-e7JSerg0xwQu-59" value="" style="endArrow=none;dashed=1;html=1;dashPattern=1 3;strokeWidth=2;rounded=0;exitX=0.733;exitY=0.957;exitDx=0;exitDy=0;sketch=1;curveFitting=1;jiggle=2;fillColor=#f8cecc;strokeColor=#b85450;entryX=0.183;entryY=0.032;entryDx=0;entryDy=0;entryPerimeter=0;exitPerimeter=0;" parent="1" source="mcDAlcP-e7JSerg0xwQu-53" target="mcDAlcP-e7JSerg0xwQu-54" edge="1">
          <mxGeometry width="50" height="50" relative="1" as="geometry">
            <mxPoint x="490" y="580" as="sourcePoint" />
            <mxPoint x="534" y="611" as="targetPoint" />
            <Array as="points">
              <mxPoint x="640" y="780" />
            </Array>
          </mxGeometry>
        </mxCell>
        <mxCell id="GFeGEaMuqH5z5WErgn3u-1" value="1" style="rounded=0;whiteSpace=wrap;html=1;" vertex="1" parent="1">
          <mxGeometry x="120" y="960" width="40" height="40" as="geometry" />
        </mxCell>
        <mxCell id="GFeGEaMuqH5z5WErgn3u-5" value="2" style="rounded=0;whiteSpace=wrap;html=1;" vertex="1" parent="1">
          <mxGeometry x="160" y="960" width="40" height="40" as="geometry" />
        </mxCell>
        <mxCell id="GFeGEaMuqH5z5WErgn3u-6" value="3" style="rounded=0;whiteSpace=wrap;html=1;" vertex="1" parent="1">
          <mxGeometry x="200" y="960" width="40" height="40" as="geometry" />
        </mxCell>
        <mxCell id="GFeGEaMuqH5z5WErgn3u-7" value="2" style="rounded=0;whiteSpace=wrap;html=1;" vertex="1" parent="1">
          <mxGeometry x="240" y="960" width="40" height="40" as="geometry" />
        </mxCell>
        <mxCell id="GFeGEaMuqH5z5WErgn3u-8" value="5" style="rounded=0;whiteSpace=wrap;html=1;" vertex="1" parent="1">
          <mxGeometry x="280" y="960" width="40" height="40" as="geometry" />
        </mxCell>
        <mxCell id="GFeGEaMuqH5z5WErgn3u-9" value="dp[son[u]]" style="text;html=1;align=center;verticalAlign=middle;resizable=0;points=[];autosize=1;strokeColor=none;fillColor=none;" vertex="1" parent="1">
          <mxGeometry x="320" y="965" width="80" height="30" as="geometry" />
        </mxCell>
        <mxCell id="GFeGEaMuqH5z5WErgn3u-10" value="1" style="rounded=0;whiteSpace=wrap;html=1;fillColor=#f8cecc;strokeColor=#b85450;" vertex="1" parent="1">
          <mxGeometry x="80" y="1080" width="40" height="40" as="geometry" />
        </mxCell>
        <mxCell id="GFeGEaMuqH5z5WErgn3u-11" value="1" style="rounded=0;whiteSpace=wrap;html=1;" vertex="1" parent="1">
          <mxGeometry x="120" y="1080" width="40" height="40" as="geometry" />
        </mxCell>
        <mxCell id="GFeGEaMuqH5z5WErgn3u-12" value="2" style="rounded=0;whiteSpace=wrap;html=1;" vertex="1" parent="1">
          <mxGeometry x="160" y="1080" width="40" height="40" as="geometry" />
        </mxCell>
        <mxCell id="GFeGEaMuqH5z5WErgn3u-13" value="3" style="rounded=0;whiteSpace=wrap;html=1;" vertex="1" parent="1">
          <mxGeometry x="200" y="1080" width="40" height="40" as="geometry" />
        </mxCell>
        <mxCell id="GFeGEaMuqH5z5WErgn3u-14" value="2" style="rounded=0;whiteSpace=wrap;html=1;" vertex="1" parent="1">
          <mxGeometry x="240" y="1080" width="40" height="40" as="geometry" />
        </mxCell>
        <mxCell id="GFeGEaMuqH5z5WErgn3u-15" value="dp[u]" style="text;html=1;align=center;verticalAlign=middle;resizable=0;points=[];autosize=1;strokeColor=none;fillColor=none;" vertex="1" parent="1">
          <mxGeometry x="335" y="1085" width="50" height="30" as="geometry" />
        </mxCell>
        <mxCell id="GFeGEaMuqH5z5WErgn3u-16" value="5" style="rounded=0;whiteSpace=wrap;html=1;" vertex="1" parent="1">
          <mxGeometry x="280" y="1080" width="40" height="40" as="geometry" />
        </mxCell>
        <mxCell id="GFeGEaMuqH5z5WErgn3u-17" value="" style="shape=flexArrow;endArrow=classic;html=1;rounded=0;" edge="1" parent="1">
          <mxGeometry width="50" height="50" relative="1" as="geometry">
            <mxPoint x="220" y="1010" as="sourcePoint" />
            <mxPoint x="220" y="1070" as="targetPoint" />
          </mxGeometry>
        </mxCell>
        <mxCell id="GFeGEaMuqH5z5WErgn3u-18" value="" style="endArrow=classic;html=1;rounded=0;fillColor=#f8cecc;strokeColor=#b85450;" edge="1" parent="1">
          <mxGeometry width="50" height="50" relative="1" as="geometry">
            <mxPoint x="100" y="1020" as="sourcePoint" />
            <mxPoint x="100" y="1070" as="targetPoint" />
          </mxGeometry>
        </mxCell>
      </root>
    </mxGraphModel>
  </diagram>
</mxfile>
